<svg xmlns="http://www.w3.org/2000/svg" width="494" height="115" viewBox="0 0 494 115" fill="none"><path d="M130.12 80.0184V24.8184H139.22V48.7184C141.62 44.6184 146.52 42.2184 152.12 42.2184C162.62 42.2184 169.02 50.4184 169.02 62.0184C169.02 73.6184 162.12 81.1184 151.52 81.1184C146.02 81.1184 141.32 78.7184 139.22 74.4184L138.62 80.1184L130.12 80.0184ZM149.62 72.7184C156.02 72.7184 159.82 68.1184 159.82 61.6184C159.82 55.1184 156.02 50.4184 149.62 50.4184C143.22 50.4184 139.32 55.0184 139.32 61.6184C139.32 68.2184 143.32 72.7184 149.62 72.7184Z" fill="white"></path><path d="M199.12 51.6191H195.82C189.32 51.6191 185.22 55.1191 185.22 62.2191V80.0191H176.12V43.4191H184.62L185.12 48.7191C186.72 45.1191 190.22 42.6191 195.12 42.6191C196.42 42.6191 197.62 42.8191 199.12 43.1191V51.6191Z" fill="white"></path><path d="M202.22 69.6184C202.22 62.8184 207.12 58.6184 215.82 57.9184L226.82 57.1184V56.3184C226.82 51.3184 223.82 49.3184 219.22 49.3184C213.82 49.3184 210.92 51.5184 210.92 55.4184H203.12C203.12 47.4184 209.62 42.3184 219.62 42.3184C229.62 42.3184 235.62 47.6184 235.62 57.8184V80.1184H227.72L227.02 74.7184C225.42 78.5184 220.52 81.1184 214.72 81.1184C206.92 81.0184 202.12 76.5184 202.22 69.6184ZM226.82 65.2184V63.3184L219.22 63.9184C213.62 64.4184 211.42 66.3184 211.42 69.2184C211.42 72.5184 213.62 74.2184 217.72 74.2184C223.22 74.2184 226.82 70.8184 226.82 65.2184Z" fill="white"></path><path d="M244.521 80.0187V43.3187H252.921L253.62 48.1187C255.92 44.4187 260.421 42.2188 265.321 42.2188C274.521 42.2188 279.321 47.9187 279.321 57.4187V80.0187H270.221V59.6187C270.221 53.4187 267.221 50.5187 262.521 50.5187C256.921 50.5187 253.521 54.4187 253.521 60.3187V80.1188L244.521 80.0187Z" fill="white"></path><path d="M286.12 61.8184C286.12 50.4184 292.82 42.2184 303.92 42.2184C309.02 42.2184 313.62 44.4184 315.92 48.0184V24.8184H324.92V80.1184H316.62L316.02 74.4184C313.82 78.6184 309.02 81.1184 303.42 81.1184C292.72 81.0184 286.12 73.2184 286.12 61.8184ZM315.72 61.5184C315.72 54.9184 311.62 50.3184 305.32 50.3184C299.02 50.3184 295.12 55.0184 295.12 61.5184C295.12 68.0184 299.02 72.6184 305.32 72.6184C311.62 72.6184 315.72 68.1184 315.72 61.5184Z" fill="white"></path><path d="M332.12 61.7188C332.12 50.2188 339.62 42.2188 350.42 42.2188C361.22 42.2188 368.42 49.6187 368.42 61.0187V63.8187L340.82 63.9187C341.52 70.4187 344.92 73.6188 350.92 73.6188C355.92 73.6188 359.12 71.7188 360.22 68.2188H368.62C367.02 76.2188 360.42 81.0187 350.82 81.0187C339.72 81.0187 332.12 73.1187 332.12 61.7188ZM340.92 58.1187H359.32C359.32 53.1187 355.82 49.7188 350.42 49.7188C345.02 49.7188 341.82 52.6187 340.92 58.1187Z" fill="white"></path><path d="M375.62 80.0187V43.3187H383.92L384.62 47.6187C386.52 44.6187 390.22 42.2188 395.52 42.2188C401.12 42.2188 404.92 45.0188 406.92 49.2188C408.82 45.0188 413.12 42.2188 418.62 42.2188C427.52 42.2188 432.42 47.5187 432.42 56.0187V80.0187H423.42V58.4187C423.42 53.1187 420.62 50.4187 416.32 50.4187C412.02 50.4187 408.62 53.2188 408.62 59.2188V80.0187H399.52V58.4187C399.52 53.3187 396.72 50.5187 392.42 50.5187C388.12 50.5187 384.62 53.3187 384.62 59.3187V80.1188L375.62 80.0187Z" fill="white"></path><path d="M440.32 30.5191C440.32 27.5191 442.82 25.1191 445.92 25.1191C449.02 25.1191 451.32 27.5191 451.32 30.5191C451.32 33.5191 448.82 36.0191 445.92 36.0191C442.82 36.0191 440.32 33.5191 440.32 30.5191ZM441.42 43.3191H450.52V80.0191H441.42V43.3191Z" fill="white"></path><path d="M476.02 42.2188C486.02 42.2188 492.92 47.8187 493.82 56.6187H484.72C483.72 52.4187 480.62 50.3187 476.32 50.3187C470.52 50.3187 466.62 54.7187 466.62 61.6187C466.62 68.5187 470.22 72.8187 476.02 72.8187C480.52 72.8187 483.72 70.6188 484.72 66.6188H493.82C492.72 75.1188 485.62 81.0187 476.02 81.0187C464.92 81.0187 457.62 73.3187 457.62 61.6187C457.62 49.9187 465.12 42.2188 476.02 42.2188Z" fill="white"></path><path d="M53.5297 113.979C53.0897 113.969 52.6297 113.789 52.1997 113.669L49.8497 112.949L44.0597 111.199L28.5197 106.489C26.1597 105.759 23.6897 105.179 21.4197 104.209C15.7997 101.819 11.9497 96.8992 9.73971 91.3492C8.58971 88.4592 8.01971 85.2892 7.27971 82.2792L1.58971 53.2592C0.769711 47.9192 -0.210289 42.3592 0.039711 36.9492C0.249711 32.3292 1.48971 27.9092 3.31971 23.6792C4.58971 20.7492 6.18971 17.9392 8.17971 15.4292C12.5297 9.95924 19.1297 5.32924 25.6397 2.77924C30.1797 1.00924 35.2997 -0.240757 40.2097 0.0392425C43.6997 0.239243 47.1997 1.62924 50.5197 2.63924L63.9597 6.71924L70.4397 8.67924C71.9097 9.11924 73.4897 9.47924 74.8897 10.0992C73.3697 9.91924 71.8997 9.75924 70.3597 9.79924C68.6697 9.83924 66.9097 10.1192 65.2497 10.4292C58.3397 11.7192 51.9097 14.9692 46.4297 19.3192C44.8697 20.5592 43.3497 21.8792 41.9997 23.3592C36.8497 29.0392 33.2997 36.9092 32.4597 44.5392C32.1797 47.0792 32.2297 49.7092 32.4297 52.2492L33.3897 59.9092L37.5097 83.1192L39.9997 94.0192C40.5797 96.3592 41.1097 98.7692 41.9497 101.039C42.9297 103.669 44.3597 106.089 46.1297 108.269C47.5397 109.999 49.3597 111.579 51.2597 112.739C51.9897 113.179 52.8397 113.519 53.5397 113.989L53.5297 113.979Z" fill="#5431D0"></path><path d="M53.5292 113.979C52.8292 113.509 51.9792 113.169 51.2492 112.729C49.3492 111.569 47.5192 109.989 46.1192 108.259C44.3492 106.079 42.9192 103.669 41.9392 101.029C41.0992 98.7691 40.5692 96.3591 39.9892 94.0091L37.4992 83.1091L33.3792 59.8991L32.4192 52.2391C32.2292 49.6891 32.1692 47.0691 32.4492 44.5291C33.2992 36.8991 36.8392 29.0291 41.9892 23.3491C43.3292 21.8691 44.8492 20.5491 46.4192 19.3091C51.8992 14.9591 58.3292 11.7091 65.2392 10.4191C66.8992 10.1091 68.6492 9.83911 70.3492 9.78911C71.8792 9.74911 73.3592 9.91911 74.8792 10.0891C76.5392 10.5091 78.1892 10.9791 79.7392 11.7191C84.0692 13.7691 87.4092 17.1091 89.8392 21.1891C92.2592 25.2391 93.6192 29.9291 94.0692 34.6091C94.2392 36.3791 94.2892 38.1891 94.2092 39.9591L94.1092 41.8791C94.1092 41.9491 94.0492 42.3991 94.0792 42.4491C94.1392 42.5691 96.2292 43.7791 96.5292 43.9791C97.6292 44.7291 98.6192 45.5991 99.5592 46.5391C108.159 55.0391 109.729 68.4691 106.829 79.7591C105.639 84.3791 103.809 88.8391 101.239 92.8591C97.0692 99.3791 90.7592 104.819 84.1092 108.709C77.9892 112.299 71.0592 114.829 63.9492 115.369C61.2492 115.569 58.7692 115.539 56.1292 114.849C55.4592 114.679 54.8092 114.429 54.1592 114.199C54.0092 114.149 53.6792 113.979 53.5292 113.979Z" fill="#18EA7C"></path><path d="M46.3701 29.1198C48.8001 26.7198 51.3901 24.7798 54.3201 23.0098C54.8401 25.2898 55.2101 27.6798 55.1201 30.0298C52.3601 29.1598 49.2401 29.1098 46.3701 29.1198Z" fill="#242223"></path><path d="M41.8799 68.1992C43.9299 68.6992 45.9899 69.4092 48.0099 70.0192L57.5699 72.9192L61.0799 73.9792C61.8099 74.2092 62.6199 74.5292 63.3899 74.5992L65.5799 75.3392C62.4999 81.5992 57.3999 86.2992 51.6499 90.1192C50.2799 91.0292 48.6899 92.1292 47.1599 92.6992L41.8899 68.1992H41.8799Z" fill="#242223"></path><path d="M77.3801 47.4484C80.3701 47.2484 83.2401 47.5884 86.1101 48.4284C86.1101 48.7484 85.9302 49.1084 85.8302 49.4084L85.1301 51.3284C82.5601 57.8784 77.8001 63.8084 71.2501 66.6684C70.4101 66.9584 69.4601 67.1984 68.5701 67.0784L68.4102 67.0584C67.2302 66.8884 66.2701 66.4984 65.3501 65.7384C63.7601 64.4384 62.9901 62.3784 62.8001 60.3884C62.5201 57.3884 63.4701 54.3284 65.3901 52.0184C66.8301 50.2884 68.5801 49.5084 70.6701 48.8184C72.8801 48.0784 75.0601 47.6684 77.3801 47.4584V47.4484Z" fill="#2D1E7C"></path><path d="M54.3193 23.0098C58.1593 20.7498 62.3093 19.2098 66.7293 18.5698C68.4093 18.3298 70.1593 18.1498 71.8493 18.3798C76.3093 18.9898 79.9393 21.1998 82.7093 24.7498C85.2493 27.9998 86.6693 32.0998 87.1693 36.1698C87.3193 37.3698 87.3393 38.5998 87.3893 39.8098C86.6993 39.6198 85.8793 39.5398 85.2293 39.2898C84.4593 38.7398 83.0593 38.4798 82.1393 38.2098L77.3993 36.7798L55.1193 30.0198C55.2093 27.6798 54.8393 25.2798 54.3193 22.9998V23.0098Z" fill="#2D1E7C"></path><path d="M46.3697 29.1201C49.2397 29.1001 52.3497 29.1601 55.1197 30.0301L77.3997 36.7901L82.1397 38.2201C83.0497 38.4901 84.4597 38.7501 85.2297 39.3001C83.2797 39.0601 81.3597 38.8501 79.3997 38.9001C76.2797 38.9701 73.2097 39.5501 70.2397 40.4901C67.9597 41.2001 65.7497 42.0901 63.8397 43.5701C59.5597 46.8901 56.6897 52.3301 56.0297 57.6901C55.4497 62.4301 56.2397 67.4501 59.2597 71.2801C60.3997 72.7301 61.7997 73.7001 63.3797 74.6201C62.6097 74.5501 61.7997 74.2201 61.0697 74.0001L57.5597 72.9401L47.9997 70.0401C45.9797 69.4201 43.9197 68.7101 41.8697 68.2201L39.1597 48.6001C38.8497 41.5101 41.5597 34.3501 46.3597 29.1401L46.3697 29.1201Z" fill="#5431D0"></path><path d="M65.5696 75.3391C66.4996 75.4891 67.4196 75.6291 68.3596 75.5991C71.9396 75.4691 75.2696 73.6191 78.1096 71.5691C82.3796 68.4991 85.9697 64.3391 88.5497 59.7691C90.0697 57.0691 91.1997 54.2791 92.2597 51.3691C96.8597 54.4391 99.7196 59.7291 100.78 65.0691C102.38 73.1291 100.2 82.0991 95.6396 88.8591C93.8596 91.4891 91.7296 93.6491 89.3396 95.7191C83.2396 101.029 75.9896 104.929 67.9996 106.439C63.2496 107.339 58.5496 107.459 54.3896 104.629C50.2896 101.839 48.1296 97.4391 47.1396 92.6991C48.6696 92.1191 50.2597 91.0291 51.6297 90.1191C57.3797 86.2991 62.4796 81.6091 65.5596 75.3391H65.5696Z" fill="#2D1E7C"></path></svg>