<svg xmlns="http://www.w3.org/2000/svg" viewBox="0 0 1100 500"><defs><style>      .cls-1 {        fill: none;        stroke: #2154a3;        stroke-miterlimit: 10;        stroke-width: 9.63px;      }      .cls-2 {        fill: #f16a24;      }    </style></defs><g><g id="Layer_1"><g><circle class="cls-1" cx="124.96" cy="294.02" r="112.66"></circle><path class="cls-1" d="M80.31,397.48l42.44-76c.97-1.74,3.47-1.75,4.46-.03l43.45,75.56"></path><path class="cls-1" d="M161.11,380.41l14.9-32.68c.97-1.74,3.47-1.75,4.46-.03l14.19,33.08"></path><path class="cls-1" d="M56.46,383.47l16.3-38.75c.97-1.74,3.47-1.75,4.46-.03l14.13,33.03"></path><path class="cls-1" d="M198.7,367.16"></path><path class="cls-1" d="M171.58,331.43"></path><path class="cls-1" d="M152.06,363.39"></path><path class="cls-1" d="M98.05,365.27"></path><path class="cls-1" d="M73.05,331.43"></path><path class="cls-1" d="M51.22,367.16"></path><path class="cls-1" d="M109.07,346.32c-10.55-5.67-17.72-16.81-17.72-29.62,0-18.56,15.05-33.61,33.61-33.61s33.61,15.05,33.61,33.61c0,12.82-7.65,23.96-18.33,29.63"></path><line class="cls-1" x1="66.45" y1="197.73" x2="66.45" y2="197.73"></line><line class="cls-1" x1="95.37" y1="225.23" x2="95.37" y2="225.23"></line><line class="cls-1" x1="58.09" y1="203.35" x2="107.14" y2="288.2"></line><line class="cls-1" x1="21.58" y1="338.85" x2="91.35" y2="320.18"></line><line class="cls-1" x1="16.19" y1="268.19" x2="93.04" y2="305.79"></line><line class="cls-1" x1="193.01" y1="204.23" x2="141.33" y2="287.34"></line><line class="cls-1" x1="230.72" y1="329.09" x2="158.57" y2="321.98"></line><line class="cls-1" x1="233.32" y1="263.07" x2="156" y2="303.79"></line><line class="cls-1" x1="124.96" y1="283.09" x2="124.96" y2="181.36"></line></g><g><path class="cls-2" d="M279.77,300.55v-87.52h30.88c6.58,0,12.67,1.11,18.25,3.31,5.58,2.21,10.46,5.27,14.63,9.19,4.17,3.92,7.42,8.54,9.75,13.88,2.33,5.33,3.5,11.13,3.5,17.38s-1.15,12.15-3.44,17.44c-2.29,5.29-5.52,9.9-9.69,13.81-4.17,3.92-9.06,6.98-14.69,9.19-5.63,2.21-11.73,3.31-18.32,3.31h-30.88ZM292.89,288.8h18c4.58,0,8.83-.81,12.75-2.44,3.92-1.62,7.35-3.88,10.31-6.75,2.96-2.88,5.25-6.25,6.88-10.13,1.62-3.88,2.44-8.1,2.44-12.69s-.81-8.71-2.44-12.63c-1.63-3.92-3.92-7.31-6.88-10.19-2.96-2.88-6.4-5.13-10.31-6.75-3.92-1.63-8.17-2.44-12.75-2.44h-18v64.01Z"></path><path class="cls-2" d="M375.41,226.66c-2.08,0-3.88-.77-5.38-2.31-1.5-1.54-2.25-3.35-2.25-5.44s.75-3.98,2.25-5.44c1.5-1.46,3.29-2.19,5.38-2.19s4,.73,5.5,2.19c1.5,1.46,2.25,3.27,2.25,5.44s-.75,3.9-2.25,5.44c-1.5,1.54-3.33,2.31-5.5,2.31ZM369.16,300.55v-63.64h12.5v63.64h-12.5Z"></path><path class="cls-2" d="M425.67,301.55c-5.92,0-11.34-1.46-16.25-4.38-4.92-2.92-8.79-6.85-11.63-11.81-2.83-4.96-4.25-10.52-4.25-16.69s1.44-11.71,4.31-16.63c2.88-4.92,6.77-8.83,11.69-11.75,4.92-2.92,10.38-4.38,16.38-4.38,3.5,0,6.88.54,10.13,1.63,3.25,1.08,6.25,2.67,9,4.75v-29.26l12.5-2.38v89.89h-12.38v-6.13c-5.42,4.75-11.92,7.13-19.5,7.13ZM427.29,290.67c3.67,0,7.02-.67,10.06-2,3.04-1.33,5.6-3.25,7.69-5.75v-28.63c-2.08-2.33-4.65-4.19-7.69-5.56-3.04-1.38-6.4-2.06-10.06-2.06-4,0-7.63.96-10.88,2.88-3.25,1.92-5.83,4.52-7.75,7.81-1.92,3.29-2.88,7.02-2.88,11.19s.96,7.92,2.88,11.25c1.92,3.33,4.5,5.98,7.75,7.94,3.25,1.96,6.88,2.94,10.88,2.94Z"></path><path class="cls-2" d="M478.55,226.66c-2.08,0-3.88-.77-5.38-2.31-1.5-1.54-2.25-3.35-2.25-5.44s.75-3.98,2.25-5.44c1.5-1.46,3.29-2.19,5.38-2.19s4,.73,5.5,2.19c1.5,1.46,2.25,3.27,2.25,5.44s-.75,3.9-2.25,5.44c-1.5,1.54-3.33,2.31-5.5,2.31ZM472.3,300.55v-63.64h12.5v63.64h-12.5Z"></path><path class="cls-2" d="M501.05,300.55v-87.52h37.88c5.75,0,10.75.96,15,2.88,4.25,1.92,7.54,4.61,9.88,8.06,2.33,3.46,3.5,7.52,3.5,12.19,0,4.25-1.08,8-3.25,11.25s-5.21,5.83-9.13,7.75c4.92,1.75,8.77,4.4,11.57,7.94,2.79,3.54,4.19,7.69,4.19,12.44,0,5.08-1.25,9.5-3.75,13.25-2.5,3.75-6,6.65-10.5,8.69-4.5,2.04-9.79,3.06-15.88,3.06h-39.51ZM514.18,250.16h24c4.92,0,8.83-1.17,11.75-3.5,2.92-2.33,4.38-5.5,4.38-9.5s-1.46-7.17-4.38-9.5c-2.92-2.33-6.84-3.5-11.75-3.5h-24v26ZM514.18,289.42h25.38c5.5,0,9.86-1.29,13.06-3.88,3.21-2.58,4.81-6.08,4.81-10.5s-1.61-7.81-4.81-10.44c-3.21-2.63-7.56-3.94-13.06-3.94h-25.38v28.76Z"></path><path class="cls-2" d="M583.44,300.55v-87.52l12.5-2.75v33.13c4.92-5.17,11.29-7.75,19.13-7.75,4.92,0,9.23,1.04,12.94,3.13,3.71,2.08,6.63,5,8.75,8.75,2.12,3.75,3.19,8.09,3.19,13v40.01h-12.5v-37.88c0-5-1.42-8.94-4.25-11.81-2.83-2.88-6.71-4.31-11.63-4.31-3.33,0-6.33.71-9,2.13-2.67,1.42-4.88,3.46-6.63,6.13v45.76h-12.5Z"></path><path class="cls-2" d="M678.33,301.8c-4.92,0-9.25-1.04-13-3.13-3.75-2.08-6.67-5.02-8.75-8.81-2.08-3.79-3.13-8.15-3.13-13.06v-39.88h12.38v37.76c0,5,1.44,8.96,4.31,11.88,2.88,2.92,6.73,4.38,11.56,4.38,3.42,0,6.46-.73,9.13-2.19,2.67-1.46,4.83-3.52,6.5-6.19v-45.63h12.5v63.64h-12.5v-6.5c-4.92,5.17-11.25,7.75-19,7.75Z"></path><path class="cls-2" d="M724.59,300.55v-87.52l12.5-2.38v89.89h-12.5Z"></path><path class="cls-2" d="M771.97,301.67c-4.58,0-8.63-.81-12.13-2.44-3.5-1.62-6.25-3.9-8.25-6.81-2-2.92-3-6.29-3-10.13,0-6,2.29-10.73,6.88-14.19,4.58-3.46,10.88-5.19,18.88-5.19,6.25,0,12.04,1.21,17.38,3.63v-6.75c0-4.58-1.31-8-3.94-10.25-2.63-2.25-6.48-3.38-11.57-3.38-2.92,0-5.96.44-9.13,1.31-3.17.88-6.71,2.23-10.63,4.06l-4.63-9.38c4.83-2.25,9.33-3.9,13.5-4.94,4.17-1.04,8.38-1.56,12.63-1.56,8.25,0,14.65,1.96,19.19,5.88,4.54,3.92,6.81,9.5,6.81,16.75v42.26h-12.25v-5.5c-2.83,2.25-5.88,3.92-9.13,5-3.25,1.08-6.79,1.62-10.63,1.62ZM760.6,282.05c0,3.08,1.31,5.58,3.94,7.5,2.62,1.92,6.06,2.88,10.31,2.88,3.33,0,6.4-.5,9.19-1.5,2.79-1,5.35-2.54,7.69-4.63v-10.75c-2.42-1.42-4.94-2.44-7.56-3.06-2.63-.62-5.56-.94-8.81-.94-4.58,0-8.19.94-10.81,2.81-2.63,1.88-3.94,4.44-3.94,7.69Z"></path><path class="cls-2" d="M869.99,300.55v-75.89h-30.76v-11.63h74.64v11.63h-30.76v75.89h-13.13Z"></path><path class="cls-2" d="M917.5,300.55v-63.64h12.5v8.13c2-3,4.48-5.35,7.44-7.06,2.96-1.71,6.31-2.56,10.06-2.56,2.58.08,4.71.46,6.38,1.13v11.25c-1.17-.5-2.38-.85-3.63-1.06-1.25-.21-2.5-.31-3.75-.31-3.67,0-6.92.98-9.75,2.94-2.83,1.96-5.08,4.81-6.75,8.56v42.63h-12.5Z"></path><path class="cls-2" d="M970.14,226.66c-2.08,0-3.88-.77-5.38-2.31-1.5-1.54-2.25-3.35-2.25-5.44s.75-3.98,2.25-5.44c1.5-1.46,3.29-2.19,5.38-2.19s4,.73,5.5,2.19c1.5,1.46,2.25,3.27,2.25,5.44s-.75,3.9-2.25,5.44c-1.5,1.54-3.33,2.31-5.5,2.31ZM963.88,300.55v-63.64h12.5v63.64h-12.5Z"></path><path class="cls-2" d="M991.14,326.05v-89.14h12.38v6.13c5.33-4.75,11.83-7.13,19.5-7.13,6,0,11.44,1.46,16.32,4.38,4.88,2.92,8.73,6.84,11.56,11.75,2.83,4.92,4.25,10.46,4.25,16.63s-1.44,11.73-4.31,16.69c-2.88,4.96-6.75,8.9-11.63,11.81-4.88,2.92-10.36,4.38-16.44,4.38-3.5,0-6.88-.56-10.13-1.69-3.25-1.13-6.25-2.73-9-4.81v31.01h-12.5ZM1021.39,290.67c4.08,0,7.73-.96,10.94-2.88,3.21-1.92,5.77-4.52,7.69-7.81,1.92-3.29,2.88-7.02,2.88-11.19s-.96-7.92-2.88-11.25c-1.92-3.33-4.48-5.96-7.69-7.88-3.21-1.92-6.86-2.88-10.94-2.88-3.58,0-6.92.67-10,2-3.08,1.33-5.67,3.21-7.75,5.63v28.76c2.08,2.33,4.69,4.17,7.81,5.5,3.13,1.33,6.44,2,9.94,2Z"></path></g><g><path class="cls-2" d="M275.49,377.41v-40.63h14.34c3.06,0,5.88.51,8.47,1.54,2.59,1.03,4.86,2.45,6.79,4.27,1.93,1.82,3.44,3.97,4.53,6.44,1.08,2.48,1.63,5.17,1.63,8.07s-.53,5.64-1.6,8.1c-1.06,2.46-2.56,4.6-4.5,6.41-1.94,1.82-4.21,3.24-6.82,4.27-2.61,1.03-5.45,1.54-8.5,1.54h-14.34ZM281.59,371.95h8.36c2.13,0,4.1-.38,5.92-1.13,1.82-.75,3.42-1.8,4.79-3.13,1.37-1.33,2.44-2.9,3.19-4.7.75-1.8,1.13-3.76,1.13-5.89s-.38-4.04-1.13-5.86c-.75-1.82-1.82-3.4-3.19-4.73-1.37-1.33-2.97-2.38-4.79-3.13-1.82-.75-3.79-1.13-5.92-1.13h-8.36v29.72Z"></path><path class="cls-2" d="M331.16,377.93c-2.9,0-5.52-.68-7.87-2.03-2.34-1.35-4.2-3.19-5.57-5.51-1.37-2.32-2.06-4.91-2.06-7.78s.66-5.39,1.97-7.69c1.31-2.3,3.1-4.14,5.34-5.51,2.24-1.37,4.74-2.06,7.49-2.06s5.19.69,7.31,2.06c2.13,1.37,3.82,3.23,5.08,5.57,1.26,2.34,1.89,4.98,1.89,7.92v1.62h-23.28c.31,1.63.92,3.08,1.83,4.35.91,1.28,2.07,2.28,3.48,3.02,1.41.74,2.95,1.1,4.61,1.1,1.43,0,2.82-.22,4.15-.67,1.33-.44,2.45-1.09,3.34-1.94l3.71,3.66c-1.74,1.32-3.53,2.29-5.37,2.93-1.84.64-3.86.96-6.07.96ZM321.52,360.17h17.47c-.23-1.55-.76-2.91-1.6-4.09-.83-1.18-1.86-2.11-3.08-2.79-1.22-.68-2.55-1.02-3.98-1.02s-2.83.33-4.06.99c-1.24.66-2.27,1.58-3.11,2.76-.83,1.18-1.38,2.56-1.65,4.15Z"></path><path class="cls-2" d="M360.7,377.99c-2.55,0-4.94-.38-7.17-1.13-2.23-.75-4.15-1.83-5.78-3.22l3.19-3.83c1.51,1.2,3.07,2.12,4.67,2.76,1.61.64,3.24.96,4.9.96,2.09,0,3.79-.41,5.11-1.22,1.31-.81,1.97-1.88,1.97-3.19,0-1.08-.39-1.93-1.16-2.55-.77-.62-1.97-1.04-3.6-1.28l-5.34-.75c-2.94-.42-5.15-1.33-6.62-2.73-1.47-1.39-2.21-3.25-2.21-5.57,0-1.78.48-3.34,1.45-4.67.97-1.33,2.32-2.38,4.06-3.13,1.74-.75,3.77-1.13,6.1-1.13,2.13,0,4.18.31,6.15.93s3.87,1.59,5.69,2.9l-2.96,3.83c-1.62-1.08-3.2-1.88-4.73-2.38-1.53-.5-3.07-.75-4.61-.75-1.78,0-3.21.38-4.3,1.13-1.08.75-1.63,1.73-1.63,2.93,0,1.08.38,1.92,1.13,2.52.75.6,2,1.02,3.74,1.25l5.34.75c2.94.43,5.17,1.33,6.68,2.7,1.51,1.37,2.26,3.22,2.26,5.54,0,1.78-.54,3.38-1.62,4.79-1.08,1.41-2.55,2.53-4.41,3.34s-3.97,1.22-6.33,1.22Z"></path><path class="cls-2" d="M389.61,377.93c-2.86,0-5.05-.67-6.56-2s-2.26-3.28-2.26-5.83v-17.36h-6.27v-4.88h6.27v-7.55l5.75-1.39v8.94h8.71v4.88h-8.71v16.02c0,1.51.34,2.58,1.02,3.22.68.64,1.79.96,3.34.96.81,0,1.54-.06,2.18-.17s1.33-.29,2.06-.52v4.88c-.77.27-1.67.47-2.7.61-1.03.13-1.96.2-2.81.2Z"></path><path class="cls-2" d="M402.44,343.1c-.97,0-1.8-.36-2.5-1.07-.7-.71-1.04-1.56-1.04-2.52s.35-1.85,1.04-2.53c.7-.68,1.53-1.02,2.5-1.02s1.86.34,2.55,1.02c.7.68,1.04,1.52,1.04,2.53s-.35,1.81-1.04,2.52c-.7.72-1.55,1.07-2.55,1.07ZM399.54,377.41v-29.55h5.8v29.55h-5.8Z"></path><path class="cls-2" d="M412.19,377.41v-29.55h5.8v3.02c2.28-2.4,5.24-3.6,8.88-3.6,2.28,0,4.29.48,6.01,1.45,1.72.97,3.08,2.32,4.06,4.06.99,1.74,1.48,3.75,1.48,6.04v18.58h-5.8v-17.59c0-2.32-.65-4.15-1.94-5.49-1.3-1.34-3.11-2-5.43-2-1.55,0-2.94.33-4.18.99-1.24.66-2.26,1.61-3.08,2.84v21.25h-5.8Z"></path><path class="cls-2" d="M454.45,377.93c-2.13,0-4.01-.38-5.63-1.13-1.62-.75-2.9-1.81-3.83-3.16-.93-1.35-1.39-2.92-1.39-4.7,0-2.79,1.06-4.98,3.19-6.59,2.13-1.61,5.05-2.41,8.77-2.41,2.9,0,5.59.56,8.07,1.68v-3.13c0-2.13-.61-3.72-1.83-4.76-1.22-1.04-3.01-1.57-5.37-1.57-1.36,0-2.77.2-4.24.61-1.47.41-3.12,1.04-4.93,1.89l-2.15-4.35c2.24-1.04,4.33-1.81,6.27-2.29,1.93-.48,3.89-.73,5.86-.73,3.83,0,6.8.91,8.91,2.73,2.11,1.82,3.16,4.41,3.16,7.78v19.62h-5.69v-2.55c-1.32,1.04-2.73,1.82-4.24,2.32-1.51.5-3.15.75-4.93.75ZM449.17,368.82c0,1.43.61,2.59,1.83,3.48,1.22.89,2.82,1.33,4.79,1.33,1.55,0,2.97-.23,4.27-.7,1.3-.46,2.49-1.18,3.57-2.15v-4.99c-1.12-.66-2.29-1.13-3.51-1.42-1.22-.29-2.58-.44-4.09-.44-2.13,0-3.8.44-5.02,1.31-1.22.87-1.83,2.06-1.83,3.57Z"></path><path class="cls-2" d="M487.77,377.93c-2.86,0-5.05-.67-6.56-2s-2.26-3.28-2.26-5.83v-17.36h-6.27v-4.88h6.27v-7.55l5.75-1.39v8.94h8.71v4.88h-8.71v16.02c0,1.51.34,2.58,1.02,3.22.68.64,1.79.96,3.34.96.81,0,1.54-.06,2.18-.17s1.33-.29,2.06-.52v4.88c-.77.27-1.67.47-2.7.61-1.03.13-1.96.2-2.81.2Z"></path><path class="cls-2" d="M500.59,343.1c-.97,0-1.8-.36-2.5-1.07-.7-.71-1.04-1.56-1.04-2.52s.35-1.85,1.04-2.53c.7-.68,1.53-1.02,2.5-1.02s1.86.34,2.55,1.02c.7.68,1.04,1.52,1.04,2.53s-.35,1.81-1.04,2.52c-.7.72-1.55,1.07-2.55,1.07ZM497.69,377.41v-29.55h5.8v29.55h-5.8Z"></path><path class="cls-2" d="M524.39,377.99c-2.86,0-5.47-.68-7.81-2.03-2.34-1.35-4.19-3.19-5.54-5.51-1.35-2.32-2.03-4.91-2.03-7.78s.68-5.46,2.03-7.78c1.35-2.32,3.2-4.17,5.54-5.54,2.34-1.37,4.94-2.06,7.81-2.06s5.51.69,7.84,2.06c2.32,1.37,4.16,3.22,5.51,5.54,1.35,2.32,2.03,4.92,2.03,7.78s-.68,5.46-2.03,7.78c-1.35,2.32-3.19,4.16-5.51,5.51-2.32,1.36-4.93,2.03-7.84,2.03ZM524.39,372.88c1.82,0,3.46-.46,4.93-1.36,1.47-.91,2.63-2.14,3.48-3.69.85-1.55,1.28-3.29,1.28-5.22s-.44-3.61-1.31-5.14c-.87-1.53-2.03-2.76-3.48-3.69s-3.09-1.39-4.9-1.39-3.45.46-4.9,1.39-2.61,2.16-3.48,3.69c-.87,1.53-1.31,3.24-1.31,5.14s.43,3.68,1.28,5.22c.85,1.55,2.01,2.78,3.48,3.69,1.47.91,3.11,1.36,4.93,1.36Z"></path><path class="cls-2" d="M545.29,377.41v-29.55h5.8v3.02c2.28-2.4,5.24-3.6,8.88-3.6,2.28,0,4.29.48,6.01,1.45,1.72.97,3.08,2.32,4.06,4.06.99,1.74,1.48,3.75,1.48,6.04v18.58h-5.8v-17.59c0-2.32-.65-4.15-1.94-5.49-1.3-1.34-3.11-2-5.43-2-1.55,0-2.94.33-4.18.99-1.24.66-2.26,1.61-3.08,2.84v21.25h-5.8Z"></path><path class="cls-2" d="M588.36,377.99c-2.55,0-4.94-.38-7.17-1.13-2.23-.75-4.15-1.83-5.78-3.22l3.19-3.83c1.51,1.2,3.07,2.12,4.67,2.76,1.61.64,3.24.96,4.91.96,2.09,0,3.79-.41,5.11-1.22s1.97-1.88,1.97-3.19c0-1.08-.39-1.93-1.16-2.55-.78-.62-1.97-1.04-3.6-1.28l-5.34-.75c-2.94-.42-5.15-1.33-6.62-2.73-1.47-1.39-2.21-3.25-2.21-5.57,0-1.78.48-3.34,1.45-4.67.97-1.33,2.32-2.38,4.06-3.13,1.74-.75,3.77-1.13,6.09-1.13,2.13,0,4.18.31,6.15.93,1.97.62,3.87,1.59,5.69,2.9l-2.96,3.83c-1.62-1.08-3.2-1.88-4.73-2.38-1.53-.5-3.07-.75-4.62-.75-1.78,0-3.21.38-4.29,1.13-1.08.75-1.63,1.73-1.63,2.93,0,1.08.38,1.92,1.13,2.52.75.6,2,1.02,3.74,1.25l5.34.75c2.94.43,5.17,1.33,6.68,2.7,1.51,1.37,2.26,3.22,2.26,5.54,0,1.78-.54,3.38-1.63,4.79-1.08,1.41-2.55,2.53-4.41,3.34s-3.97,1.22-6.33,1.22Z"></path><path class="cls-2" d="M631.78,377.99c-3.25,0-6.39-.64-9.4-1.92s-5.69-3.08-8.01-5.4l3.71-4.3c2.21,2.17,4.46,3.77,6.76,4.82s4.71,1.57,7.23,1.57c1.97,0,3.71-.28,5.2-.84,1.49-.56,2.64-1.36,3.45-2.41s1.22-2.22,1.22-3.54c0-1.82-.64-3.21-1.92-4.18-1.28-.97-3.39-1.7-6.33-2.21l-6.79-1.1c-3.72-.66-6.49-1.86-8.33-3.6-1.84-1.74-2.76-4.06-2.76-6.97,0-2.32.62-4.36,1.86-6.12,1.24-1.76,2.99-3.12,5.25-4.09,2.26-.97,4.88-1.45,7.87-1.45s5.83.47,8.68,1.42c2.84.95,5.41,2.31,7.69,4.09l-3.37,4.64c-4.37-3.33-8.8-4.99-13.29-4.99-1.78,0-3.33.25-4.64.75-1.32.5-2.34,1.21-3.08,2.12-.74.91-1.1,1.96-1.1,3.16,0,1.66.56,2.93,1.68,3.8,1.12.87,2.98,1.5,5.57,1.89l6.56,1.1c4.29.7,7.45,1.96,9.46,3.77,2.01,1.82,3.02,4.32,3.02,7.49,0,2.48-.68,4.65-2.03,6.53-1.36,1.88-3.25,3.34-5.69,4.38-2.44,1.04-5.26,1.57-8.47,1.57Z"></path><path class="cls-2" d="M655.81,343.1c-.97,0-1.8-.36-2.5-1.07-.7-.71-1.04-1.56-1.04-2.52s.35-1.85,1.04-2.53c.7-.68,1.53-1.02,2.5-1.02s1.86.34,2.55,1.02c.7.68,1.04,1.52,1.04,2.53s-.35,1.81-1.04,2.52c-.7.72-1.55,1.07-2.55,1.07ZM652.91,377.41v-29.55h5.8v29.55h-5.8Z"></path><path class="cls-2" d="M665.56,377.41v-29.55h5.8v2.84c2.21-2.28,4.97-3.42,8.3-3.42,2.01,0,3.8.45,5.37,1.33,1.57.89,2.82,2.09,3.74,3.6,1.24-1.62,2.69-2.85,4.35-3.69,1.66-.83,3.54-1.25,5.63-1.25,2.21,0,4.13.48,5.78,1.45,1.64.97,2.94,2.32,3.89,4.06.95,1.74,1.42,3.75,1.42,6.04v18.58h-5.8v-17.59c0-2.32-.61-4.15-1.83-5.49-1.22-1.34-2.87-2-4.96-2-1.43,0-2.73.33-3.89.99-1.16.66-2.17,1.67-3.02,3.02.08.39.13.79.17,1.22.04.43.06.85.06,1.28v18.58h-5.75v-17.59c0-2.32-.61-4.15-1.83-5.49-1.22-1.34-2.87-2-4.96-2-1.39,0-2.65.3-3.77.9-1.12.6-2.09,1.5-2.9,2.7v21.48h-5.8Z"></path><path class="cls-2" d="M716.52,389.25v-41.39h5.75v2.84c2.48-2.21,5.49-3.31,9.05-3.31,2.79,0,5.31.68,7.58,2.03s4.05,3.17,5.37,5.46c1.32,2.28,1.97,4.86,1.97,7.72s-.67,5.45-2,7.75c-1.34,2.3-3.13,4.13-5.4,5.49-2.26,1.36-4.81,2.03-7.63,2.03-1.62,0-3.19-.26-4.7-.78-1.51-.52-2.9-1.27-4.18-2.23v14.4h-5.8ZM730.57,372.82c1.9,0,3.59-.44,5.08-1.33,1.49-.89,2.68-2.1,3.57-3.63.89-1.53,1.33-3.26,1.33-5.2s-.45-3.68-1.33-5.22c-.89-1.55-2.08-2.77-3.57-3.66-1.49-.89-3.18-1.33-5.08-1.33-1.66,0-3.21.31-4.64.93s-2.63,1.49-3.6,2.61v13.35c.97,1.08,2.18,1.94,3.63,2.55,1.45.62,2.99.93,4.61.93Z"></path><path class="cls-2" d="M751.76,377.41v-40.63l5.8-1.1v41.74h-5.8Z"></path><path class="cls-2" d="M767.31,343.1c-.97,0-1.8-.36-2.5-1.07-.7-.71-1.04-1.56-1.04-2.52s.35-1.85,1.04-2.53c.7-.68,1.53-1.02,2.5-1.02s1.86.34,2.55,1.02c.7.68,1.04,1.52,1.04,2.53s-.35,1.81-1.04,2.52c-.7.72-1.55,1.07-2.55,1.07ZM764.41,377.41v-29.55h5.8v29.55h-5.8Z"></path><path class="cls-2" d="M781.48,377.41v-24.67h-6.85v-4.88h6.85v-4.47c0-3.1.86-5.46,2.58-7.08,1.72-1.62,4.19-2.44,7.4-2.44.81,0,1.58.05,2.29.15.72.1,1.36.24,1.94.43v4.99c-.7-.19-1.32-.34-1.86-.44-.54-.1-1.14-.14-1.8-.14-1.62,0-2.83.38-3.63,1.13s-1.19,1.94-1.19,3.57v4.3h8.47v4.88h-8.47v24.67h-5.75Z"></path><path class="cls-2" d="M803.01,343.1c-.97,0-1.8-.36-2.5-1.07-.7-.71-1.04-1.56-1.04-2.52s.35-1.85,1.04-2.53c.7-.68,1.53-1.02,2.5-1.02s1.86.34,2.55,1.02c.7.68,1.04,1.52,1.04,2.53s-.35,1.81-1.04,2.52c-.7.72-1.55,1.07-2.55,1.07ZM800.11,377.41v-29.55h5.8v29.55h-5.8Z"></path><path class="cls-2" d="M826.93,377.93c-2.9,0-5.52-.68-7.87-2.03-2.34-1.35-4.2-3.19-5.57-5.51-1.37-2.32-2.06-4.91-2.06-7.78s.66-5.39,1.97-7.69c1.31-2.3,3.1-4.14,5.34-5.51,2.24-1.37,4.74-2.06,7.49-2.06s5.19.69,7.31,2.06c2.13,1.37,3.82,3.23,5.08,5.57,1.26,2.34,1.89,4.98,1.89,7.92v1.62h-23.28c.31,1.63.92,3.08,1.83,4.35.91,1.28,2.07,2.28,3.48,3.02,1.41.74,2.95,1.1,4.61,1.1,1.43,0,2.82-.22,4.15-.67,1.33-.44,2.45-1.09,3.34-1.94l3.71,3.66c-1.74,1.32-3.53,2.29-5.37,2.93-1.84.64-3.86.96-6.07.96ZM817.29,360.17h17.47c-.23-1.55-.76-2.91-1.6-4.09s-1.86-2.11-3.08-2.79-2.54-1.02-3.98-1.02-2.83.33-4.06.99c-1.24.66-2.27,1.58-3.11,2.76-.83,1.18-1.38,2.56-1.65,4.15Z"></path><path class="cls-2" d="M859.67,377.87c-2.75,0-5.26-.68-7.55-2.03-2.28-1.35-4.08-3.18-5.4-5.49-1.32-2.3-1.97-4.88-1.97-7.75s.67-5.44,2-7.72c1.33-2.28,3.14-4.1,5.43-5.46s4.82-2.03,7.6-2.03c1.62,0,3.19.25,4.7.75,1.51.5,2.9,1.24,4.18,2.21v-13.58l5.8-1.1v41.74h-5.75v-2.84c-2.52,2.21-5.54,3.31-9.06,3.31ZM860.42,372.82c1.7,0,3.26-.31,4.67-.93,1.41-.62,2.6-1.51,3.57-2.67v-13.29c-.97-1.08-2.16-1.94-3.57-2.58-1.41-.64-2.97-.96-4.67-.96-1.86,0-3.54.45-5.05,1.33-1.51.89-2.71,2.1-3.6,3.63-.89,1.53-1.33,3.26-1.33,5.2s.44,3.68,1.33,5.22c.89,1.55,2.09,2.78,3.6,3.69,1.51.91,3.19,1.36,5.05,1.36Z"></path><path class="cls-2" d="M894.14,377.41v-40.63h30.07v5.34h-23.97v12.48h15.79v5.17h-15.79v17.65h-6.09Z"></path><path class="cls-2" d="M937.45,377.99c-2.86,0-5.47-.68-7.81-2.03-2.34-1.35-4.19-3.19-5.54-5.51-1.35-2.32-2.03-4.91-2.03-7.78s.68-5.46,2.03-7.78c1.35-2.32,3.2-4.17,5.54-5.54,2.34-1.37,4.94-2.06,7.81-2.06s5.51.69,7.84,2.06c2.32,1.37,4.16,3.22,5.51,5.54,1.35,2.32,2.03,4.92,2.03,7.78s-.68,5.46-2.03,7.78c-1.36,2.32-3.19,4.16-5.51,5.51-2.32,1.36-4.93,2.03-7.84,2.03ZM937.45,372.88c1.82,0,3.46-.46,4.93-1.36,1.47-.91,2.63-2.14,3.48-3.69.85-1.55,1.28-3.29,1.28-5.22s-.44-3.61-1.31-5.14c-.87-1.53-2.03-2.76-3.48-3.69s-3.09-1.39-4.91-1.39-3.45.46-4.9,1.39-2.61,2.16-3.48,3.69c-.87,1.53-1.31,3.24-1.31,5.14s.43,3.68,1.28,5.22c.85,1.55,2.01,2.78,3.48,3.69s3.11,1.36,4.93,1.36Z"></path><path class="cls-2" d="M958.34,377.41v-29.55h5.8v3.77c.93-1.39,2.08-2.49,3.45-3.28,1.37-.79,2.93-1.19,4.67-1.19,1.2.04,2.19.21,2.96.52v5.22c-.54-.23-1.1-.4-1.68-.49-.58-.1-1.16-.15-1.74-.15-1.7,0-3.21.46-4.53,1.36-1.32.91-2.36,2.24-3.13,3.98v19.79h-5.8Z"></path><path class="cls-2" d="M1004.9,377.41v-16.14l-16.37-24.5h7.08l12.48,19.1,12.48-19.1h6.79l-16.37,24.61v16.02h-6.09Z"></path><path class="cls-2" d="M1037.34,377.99c-2.86,0-5.47-.68-7.81-2.03-2.34-1.35-4.19-3.19-5.54-5.51-1.35-2.32-2.03-4.91-2.03-7.78s.68-5.46,2.03-7.78c1.35-2.32,3.2-4.17,5.54-5.54,2.34-1.37,4.94-2.06,7.81-2.06s5.51.69,7.84,2.06c2.32,1.37,4.16,3.22,5.51,5.54,1.35,2.32,2.03,4.92,2.03,7.78s-.68,5.46-2.03,7.78c-1.36,2.32-3.19,4.16-5.51,5.51-2.32,1.36-4.93,2.03-7.84,2.03ZM1037.34,372.88c1.82,0,3.46-.46,4.93-1.36,1.47-.91,2.63-2.14,3.48-3.69.85-1.55,1.28-3.29,1.28-5.22s-.44-3.61-1.31-5.14c-.87-1.53-2.03-2.76-3.48-3.69s-3.09-1.39-4.91-1.39-3.45.46-4.9,1.39-2.61,2.16-3.48,3.69c-.87,1.53-1.31,3.24-1.31,5.14s.43,3.68,1.28,5.22c.85,1.55,2.01,2.78,3.48,3.69s3.11,1.36,4.93,1.36Z"></path><path class="cls-2" d="M1069.68,377.99c-2.28,0-4.3-.48-6.04-1.45s-3.1-2.33-4.06-4.09c-.97-1.76-1.45-3.78-1.45-6.07v-18.52h5.75v17.53c0,2.32.67,4.16,2,5.51s3.12,2.03,5.37,2.03c1.59,0,3-.34,4.24-1.02,1.24-.68,2.24-1.63,3.02-2.87v-21.19h5.8v29.55h-5.8v-3.02c-2.28,2.4-5.22,3.6-8.82,3.6Z"></path></g></g></g></svg>